<svg width="39" height="38" viewBox="0 0 39 38" fill="none" xmlns="http://www.w3.org/2000/svg">
<rect x="1.07178" y="0.5" width="37" height="37" rx="18.5" fill="white"/>
<rect x="1.07178" y="0.5" width="37" height="37" rx="18.5" stroke="#182E6F"/>
<rect x="4.57178" y="4" width="30" height="30" rx="15" fill="#182E6F"/>
<path d="M20.6575 17.8055L17.4194 14.3927L18.5051 13.2685L20.6575 15.537L24.9813 11L26.048 12.1242L20.6575 17.8055ZM16.1432 23.788L21.4384 25.3137L25.9718 23.8281C25.9083 23.7077 25.8162 23.6039 25.6956 23.5169C25.575 23.4299 25.4384 23.3864 25.2861 23.3864H21.4384C21.0956 23.3864 20.8226 23.3731 20.6194 23.3463C20.4162 23.3195 20.2067 23.266 19.9908 23.1857L18.2194 22.5634L18.6384 20.9975L20.1813 21.5395C20.3972 21.6064 20.6511 21.66 20.9432 21.7001C21.2353 21.7403 21.667 21.767 22.2384 21.7804C22.2384 21.6332 22.1972 21.4927 22.1146 21.3588C22.0321 21.225 21.9337 21.138 21.8194 21.0979L17.3623 19.3714H16.1432V23.788ZM11.5718 26.5985V17.7654H17.3623C17.4511 17.7654 17.54 17.7754 17.6289 17.7955C17.7178 17.8156 17.8003 17.839 17.8765 17.8657L22.3527 19.6123C22.7718 19.7729 23.1115 20.054 23.3718 20.4555C23.6321 20.857 23.7623 21.2986 23.7623 21.7804H25.2861C25.921 21.7804 26.4607 22.0013 26.9051 22.4429C27.3496 22.8846 27.5718 23.4668 27.5718 24.1895V24.9925L21.4765 27L16.1432 25.4341V26.5985H11.5718ZM13.0956 24.9925H14.6194V19.3714H13.0956V24.9925Z" fill="white"/>
</svg>
