<svg width="39" height="38" viewBox="0 0 39 38" fill="none" xmlns="http://www.w3.org/2000/svg">
<rect x="0.785645" y="0.5" width="37" height="37" rx="18.5" stroke="#808080"/>
<path d="M20.3714 17.8055L17.1333 14.3927L18.219 13.2685L20.3714 15.537L24.6952 11L25.7618 12.1242L20.3714 17.8055ZM15.8571 23.788L21.1523 25.3137L25.6856 23.8281C25.6222 23.7077 25.5301 23.6039 25.4095 23.5169C25.2888 23.4299 25.1523 23.3864 24.9999 23.3864H21.1523C20.8095 23.3864 20.5364 23.3731 20.3333 23.3463C20.1301 23.3195 19.9206 23.266 19.7047 23.1857L17.9333 22.5634L18.3523 20.9975L19.8952 21.5395C20.111 21.6064 20.365 21.66 20.6571 21.7001C20.9491 21.7403 21.3809 21.767 21.9523 21.7804C21.9523 21.6332 21.911 21.4927 21.8285 21.3588C21.746 21.225 21.6475 21.138 21.5333 21.0979L17.0761 19.3714H15.8571V23.788ZM11.2856 26.5985V17.7654H17.0761C17.165 17.7654 17.2539 17.7754 17.3428 17.7955C17.4317 17.8156 17.5142 17.839 17.5904 17.8657L22.0666 19.6123C22.4856 19.7729 22.8253 20.054 23.0856 20.4555C23.346 20.857 23.4761 21.2986 23.4761 21.7804H24.9999C25.6349 21.7804 26.1745 22.0013 26.619 22.4429C27.0634 22.8846 27.2856 23.4668 27.2856 24.1895V24.9925L21.1904 27L15.8571 25.4341V26.5985H11.2856ZM12.8095 24.9925H14.3333V19.3714H12.8095V24.9925Z" fill="#808080"/>
</svg>
