<svg width="39" height="38" viewBox="0 0 39 38" fill="none" xmlns="http://www.w3.org/2000/svg">
<rect x="0.928711" y="0.5" width="37" height="37" rx="18.5" stroke="#808080"/>
<path fill-rule="evenodd" clip-rule="evenodd" d="M14.9843 13.4444C14.9843 10.9898 16.9741 9 19.4287 9C21.8832 9 23.8731 10.9898 23.8731 13.4444C23.8731 15.899 21.8832 17.8889 19.4287 17.8889C16.9741 17.8889 14.9843 15.899 14.9843 13.4444ZM14.9843 20.1111C11.916 20.1111 9.42871 22.5983 9.42871 25.6667C9.42871 27.5076 10.9211 29 12.762 29H26.0954C27.9363 29 29.4287 27.5076 29.4287 25.6667C29.4287 22.5983 26.9413 20.1111 23.8731 20.1111H14.9843Z" fill="#808080"/>
</svg>
