<svg width="39" height="38" viewBox="0 0 39 38" fill="none" xmlns="http://www.w3.org/2000/svg">
<rect x="1.07153" y="0.5" width="37" height="37" rx="18.5" stroke="#808080"/>
<path fill-rule="evenodd" clip-rule="evenodd" d="M15.1271 13.4444C15.1271 10.9898 17.1169 9 19.5715 9C22.0261 9 24.016 10.9898 24.016 13.4444C24.016 15.899 22.0261 17.8889 19.5715 17.8889C17.1169 17.8889 15.1271 15.899 15.1271 13.4444ZM15.1271 20.1111C12.0588 20.1111 9.57153 22.5983 9.57153 25.6667C9.57153 27.5076 11.0639 29 12.9049 29H26.2382C28.0792 29 29.5715 27.5076 29.5715 25.6667C29.5715 22.5983 27.0842 20.1111 24.016 20.1111H15.1271Z" fill="#808080"/>
</svg>
