<svg width="39" height="38" viewBox="0 0 39 38" fill="none" xmlns="http://www.w3.org/2000/svg">
<rect x="0.642822" y="0.5" width="37" height="37" rx="18.5" fill="white"/>
<rect x="0.642822" y="0.5" width="37" height="37" rx="18.5" stroke="#182E6F"/>
<rect x="4.14282" y="4" width="30" height="30" rx="15" fill="#182E6F"/>
<path fill-rule="evenodd" clip-rule="evenodd" d="M14.6984 13.4444C14.6984 10.9898 16.6882 9 19.1428 9C21.5974 9 23.5872 10.9898 23.5872 13.4444C23.5872 15.899 21.5974 17.8889 19.1428 17.8889C16.6882 17.8889 14.6984 15.899 14.6984 13.4444ZM14.6984 20.1111C11.6301 20.1111 9.14282 22.5983 9.14282 25.6667C9.14282 27.5076 10.6352 29 12.4762 29H25.8095C27.6505 29 29.1428 27.5076 29.1428 25.6667C29.1428 22.5983 26.6555 20.1111 23.5872 20.1111H14.6984Z" fill="white"/>
</svg>
