<svg width="39" height="38" viewBox="0 0 39 38" fill="none" xmlns="http://www.w3.org/2000/svg">
<rect x="1.35742" y="0.5" width="37" height="37" rx="18.5" fill="white"/>
<rect x="1.35742" y="0.5" width="37" height="37" rx="18.5" stroke="#182E6F"/>
<rect x="4.85742" y="4" width="30" height="30" rx="15" fill="#182E6F"/>
<path fill-rule="evenodd" clip-rule="evenodd" d="M15.413 13.4444C15.413 10.9898 17.4028 9 19.8574 9C22.312 9 24.3018 10.9898 24.3018 13.4444C24.3018 15.899 22.312 17.8889 19.8574 17.8889C17.4028 17.8889 15.413 15.899 15.413 13.4444ZM15.413 20.1111C12.3447 20.1111 9.85742 22.5983 9.85742 25.6667C9.85742 27.5076 11.3498 29 13.1907 29H26.5241C28.3651 29 29.8574 27.5076 29.8574 25.6667C29.8574 22.5983 27.3701 20.1111 24.3018 20.1111H15.413Z" fill="white"/>
<path d="M26.8574 6C26.8574 2.68629 29.5437 0 32.8574 0C36.1711 0 38.8574 2.68629 38.8574 6C38.8574 9.31371 36.1711 12 32.8574 12C29.5437 12 26.8574 9.31371 26.8574 6Z" fill="#3D8C40"/>
<path fill-rule="evenodd" clip-rule="evenodd" d="M32.1886 8C32.0623 8 31.9361 7.94766 31.8397 7.84238L30.502 6.38128C30.3092 6.17071 30.3092 5.8296 30.502 5.61964C30.6948 5.40907 31.0065 5.40845 31.1993 5.61903L32.1886 6.69961L34.5155 4.15793C34.7083 3.94736 35.02 3.94736 35.2128 4.15793C35.4056 4.36851 35.4056 4.70961 35.2128 4.92019L32.5375 7.84238C32.4411 7.94766 32.3149 8 32.1886 8Z" fill="white"/>
</svg>
