<svg width="39" height="38" viewBox="0 0 39 38" fill="none" xmlns="http://www.w3.org/2000/svg">
<rect x="0.928467" y="0.5" width="37" height="37" rx="18.5" fill="white"/>
<rect x="0.928467" y="0.5" width="37" height="37" rx="18.5" stroke="#182E6F"/>
<rect x="4.42847" y="4" width="30" height="30" rx="15" fill="#182E6F"/>
<path fill-rule="evenodd" clip-rule="evenodd" d="M19.515 29C19.3911 29 19.2673 28.9716 19.1556 28.9137L15.5545 27.0496C14.5326 26.5201 13.7333 25.9259 13.1091 25.2336C11.743 23.7195 10.9829 21.776 10.9708 19.7599L10.9285 13.1243C10.9235 12.3584 11.4178 11.671 12.1567 11.4122L18.769 9.10679C19.1616 8.96656 19.5995 8.9646 19.9992 9.09992L26.6366 11.3268C27.3796 11.5749 27.8819 12.2574 27.886 13.0223L27.9283 19.6628C27.9413 21.676 27.2074 23.6274 25.8624 25.1581C25.2453 25.8602 24.453 26.4632 23.4412 27.0025L19.8724 28.9088C19.7616 28.9686 19.6388 28.999 19.515 29Z" fill="white"/>
<path fill-rule="evenodd" clip-rule="evenodd" d="M18.7473 21.3209C18.554 21.3219 18.3608 21.2523 18.2118 21.1091L16.2949 19.2656C15.999 18.9793 15.9959 18.5145 16.2889 18.2262C16.5819 17.9369 17.0601 17.934 17.357 18.2193L18.7363 19.5451L22.1038 16.2248C22.3978 15.9355 22.876 15.9326 23.1719 16.2179C23.4689 16.5043 23.472 16.97 23.179 17.2574L19.2799 21.1022C19.1329 21.2474 18.9406 21.3199 18.7473 21.3209Z" fill="#182E6F"/>
</svg>
